<svg version="1" xmlns="http://www.w3.org/2000/svg" width="1418.667" height="1418.667" viewBox="0 0 1064.000000 1064.000000"><path d="M506.8 64.5c-.2.2-2.8.6-5.8 1-6.5.7-10.9 1.3-13 1.8-.8.2-3.6.7-6.3 1.2-2.6.4-5 1.1-5.3 1.6-.3.5-.9.7-1.5.4-.8-.5-18.6 4.4-23.4 6.5-1.7.7-5 2-6.5 2.5-8.7 3-23.6 10.2-38.5 18.5-10.3 5.7-35.1 23-41.6 29-.9.8-4.3 3.7-7.5 6.5-6.9 6-20.3 19.2-25.9 25.7-7.5 8.7-8.6 10.1-13.3 16.7-2.5 3.6-4.9 6.8-5.2 7.1-.8.8-10.3 16.9-13.5 23-1.6 3-3.2 6.2-3.6 7-6.8 13-18.3 47.5-20.5 61.5-.2 1.1-.5 3.1-.9 4.5-.3 1.4-.8 4.1-1.1 6-.7 4.9-1.3 8.1-1.8 10.6-.2 1.2-.7 5.7-1.1 10-.4 4.3-.9 8.8-1.1 9.8-1.6 8.4-2.1 50.1-.9 72 1.1 19.9 3.2 23.2 21 33.6 6.1 3.5 11.2 6.7 11.5 7 .3.4 3.6 2.4 7.4 4.4 3.7 2.1 9.7 5.5 13.2 7.7 3.5 2.1 6.4 3.6 6.4 3.4 0-.3 1 .3 2.2 1.5 1.2 1.1 2.5 2 2.9 2 .4 0 6.6 3.4 13.9 7.6 7.3 4.1 13.4 7.3 13.7 7 .3-.3.7-31.9.8-70.3.1-38.4.5-71.6.9-73.8.4-2.2.9-5.4 1.1-7 .6-5 3.5-18.7 5.2-24.4.8-2.9 1.6-5.9 1.8-6.5.1-.6.7-2.5 1.4-4.1.7-1.7 2-5 2.8-7.5 2.2-6.5 12.4-27 13.4-27 .5 0 .9-.6.9-1.3 0-.6 1.9-3.9 4.1-7.2 10.4-15 24.1-29.7 36.9-39.3 4.1-3.1 7.7-6 7.8-6.5.2-.4.8-.7 1.4-.7.5 0 2.9-1.4 5.3-3 2.4-1.7 4.8-3 5.3-3 .6 0 1.2-.3 1.4-.8.2-.6 9.3-5.4 10.8-5.7.3 0 2.1-.8 4-1.7 3.5-1.6 10.1-4.2 11-4.4.3 0 1.2-.4 2-.7 3.4-1.4 19.8-5.5 25-6.2 1.9-.3 5.8-.8 8.5-1.2 5.9-.9 38.2-.9 44-.1 7.9 1.2 12.1 2 16 2.9 2.2.5 5.3 1.2 6.8 1.5 1.6.3 4.6 1.2 6.8 1.9 2.1.8 3.9 1.2 3.9 1 0-.3 1.7.4 3.7 1.5 2.1 1.1 4.5 2 5.4 2 .8 0 1.9.3 2.3.7.4.5 1.1.8 1.4.9 3.2.2 27.2 13.7 28 15.6.2.5.8.8 1.4.8.9 0 6.1 3.8 10.5 7.5.6.5 2.8 2.3 4.9 4 2 1.6 4.4 3.9 5.3 4.9.9 1 2.7 2.8 4 4 1.3 1.2 2.9 2.7 3.5 3.4.6.8 2.1 2.5 3.3 3.8 1.2 1.3 3.4 4.1 5 6.1 1.5 2.1 3.6 4.7 4.6 5.7.9 1.1 1.7 2.3 1.7 2.8 0 .4.8 1.7 1.8 2.8 3.3 4 13.2 22.5 17.5 33 3.5 8.5 7.7 21.9 9.1 29 .3 1.4.7 3.6 1.1 5 .3 1.4.7 4.1 1 6 .3 1.9.7 4.5.9 5.7 1.6 7.7 1.9 34.9 2.1 168.8.1 82.5.5 152.2.9 155 .3 2.7.9 6.2 1.2 7.7.5 2.3.9 4.7 1.8 10.8.6 4.2 3 12.6 3.7 13.6.5.6.7 1.3.4 1.6-.5.4 3.5 12.1 6.6 19.3.7 1.6 1.3 3.2 1.3 3.5.6 2.9 12.5 24.2 13.8 24.8.5.2.8.8.8 1.4 0 .6 3.2 5.2 7 10.3 8.9 11.7 23.5 26.6 32 32.5 1.9 1.4 3.7 2.8 4 3.1 1.1 1.5 19.5 12.9 20.7 12.9.7 0 1.3.4 1.3 1 0 .5.6 1 1.3 1 .6 0 2.6.7 4.2 1.6 4.3 2.2 16.7 7.5 18.6 7.9.9.2 3.9 1.1 6.5 2 2.7.9 6 1.9 7.4 2.1 1.4.3 4.1.9 6 1.4 10.6 2.7 18.4 3.5 36.5 3.5 15.5 0 24.2-.5 31.8-2 8.4-1.6 11.4-2.3 14-3.1 1.2-.4 3.1-.9 4.2-1 2.9-.2 15.8-5 24.3-9 4.1-1.9 7.5-3.4 7.7-3.4.8 0 13-7.5 13.6-8.3.3-.5.8-.7 1.1-.5.5.3 13.2-8.8 18.2-13.2 11.7-10 29.2-29.8 33.7-38 .8-1.4 1.7-2.7 2-3 .7-.6 6-10 9.2-16.5 4.8-9.6 11.3-26.7 10.5-27.7-.1-.2.4-1.2 1-2.4.6-1.1 1.3-3.2 1.6-4.5.3-1.3.8-3.5 1-4.9.3-1.4.8-3.6 1.1-5 .2-1.4.7-3.6 1-5 4-19.9 3.7-52.3-.6-70.5-.5-2.2-1.2-5.1-1.5-6.5-.2-1.4-.7-3.2-1.1-4-.3-.8-.7-2.2-.8-3-.9-6.3-12.4-30.7-19.4-41.5-12.6-19.4-30.2-37.7-49-50.9-9.4-6.6-31-18.6-33.5-18.6-.4 0-2.5-.9-4.9-1.9-6.2-2.8-22-7.4-29.6-8.7-11.7-1.8-23-2.9-30.6-2.8-10.6.1-17.4.8-27.5 2.9-11.2 2.2-10.8 2.2-11.5 2.5-.7.3-2.2.7-3.6.9-1 .1-1.1 71.1-.1 85.4.4 5.8.4 5.8 3.2 5.2 1.6-.3 4.4-.8 6.2-1 1.8-.3 4.9-.7 6.8-1 8.3-1.4 11.2-1.6 23.3-1.9 7.1-.2 14.5.1 16.5.6s4.8 1.1 6.2 1.4c6.4 1.2 25 9.8 25 11.5 0 .5.7.9 1.5.9 2.7 0 19.8 18.1 24 25.4 2.2 3.8 4 7.2 4.1 7.5 0 .3.8 2.3 1.7 4.4 5.6 12.8 7.9 38.1 4.6 49.7-.7 2.5-1.4 5.1-1.5 5.9-.8 4.4-1.9 7.4-5.6 15-2.3 4.7-4.9 9.4-5.9 10.5-1.1 1.1-1.9 2.3-1.9 2.8 0 1.5-15.4 16.4-20.7 20.1-2.9 2-6.9 4.3-9 5.2-2 .9-4 1.9-4.3 2.3-.5.8-12.7 4.8-17.2 5.7-1.6.3-4 .8-5.5 1.1-3.6.8-22 .8-25.3.1-1.4-.3-3.4-.8-4.5-1-8.8-2-14.4-4.2-26-10.4-4-2.2-14.1-10.6-17.3-14.6-1.5-1.8-3.2-3.7-3.8-4.2-6-5.4-16.5-27.8-18.9-40.7-1.6-7.9-1.9-29.6-2.1-147.8-.1-73.4-.3-134.2-.4-135 0-.8.1-3.4.3-5.8.2-2.3 0-4.2-.5-4.2-.4 0-.3-1.1.2-2.5.6-1.6.6-2.5 0-2.5s-.6-.9 0-2.5c.5-1.4.6-2.5.2-2.5-.4 0-.7-4.2-.8-9.3 0-5-.4-11.9-.7-15.2-.4-3.3-.9-8.5-1.2-11.5-.3-3-.8-6.6-1.1-8-.3-1.4-.8-3.9-1-5.7-.2-1.8-1.1-6.5-2-10.5-.9-4-1.7-8.1-1.7-9.1-.1-.9-.4-1.7-.7-1.7-.3 0-.7-.8-.8-1.8-.4-4.3-2.1-10.8-4.2-15.7-.4-1.1-1.8-4.9-3-8.5-1.2-3.6-2.9-8.3-3.8-10.5-2-4.8-13.6-28.2-15.4-31-14-21.7-21.5-31.3-36.3-46.1-11.2-11.2-17.3-16.5-28-24.5-3.3-2.4-6.1-4.7-6.3-5.2-.2-.4-.8-.7-1.3-.7-.4 0-2.8-1.3-5.1-2.9-13.7-9.1-30.1-18-44.8-24.4-1.9-.8-5.5-2.4-8-3.5-4.3-1.9-18.4-7.2-20.5-7.6-.5-.2-3.5-1-6.5-2-9-2.9-19-5.4-19-4.9 0 .3-.7 0-1.5-.7s-1.5-1-1.5-.7c0 .3-2.6-.1-5.7-.8-3.2-.7-6.5-1.3-7.3-1.3-.8 0-2.8-.3-4.5-.7-8.1-1.7-17.9-2.3-38.2-2.3-12.2 0-22.3.1-22.5.3z"/><path d="M454 299.1c-9.5 2.2-21.4 9.8-25.6 16.4-1 1.6-2.7 4.2-3.6 5.6-7.4 12-6.7 35.4 1.5 46.4 9.5 12.8 23 19.6 38 19 8.9-.4 10.5-.6 12.5-1.8.6-.5 1.2-.6 1.2-.2 0 .9 10.1-4.5 12.4-6.7 1.1-1.1 3.1-2.7 4.4-3.5 1.2-.9 2.2-2.2 2.2-2.9 0-.8.4-1.4.9-1.4 1.4 0 4.9-6.5 7.2-13.3 7.7-22.7-4.6-48.1-27.1-56.3-5.1-1.8-18.7-2.6-24-1.3zM597 299.4c-8.1 1.8-15.7 6.1-22.1 12.5-5.3 5.3-10.5 13.6-11.5 18.5-3 14.2-2.4 20.6 2.9 31.6 5.8 12 18.1 21.5 30.7 23.8 12 2.2 26.1-.4 33.8-6.2 3.9-2.8 13.2-12.9 13.2-14.2 0-.8.5-1.4 1-1.4.6 0 1-.8 1-1.8s.5-2.3 1.1-2.9c.6-.6 1.3-2.6 1.7-4.4 1.2-6.1.6-24.9-.8-26.7-.2-.1-.3-.5-.4-1-.1-.4-1.2-2.6-2.4-5-9.3-17.7-29.1-27-48.2-22.8zM161 441.7c-4 .4-19.5 3-22.5 3.7-1.1.2-4.1.9-6.7 1.5-8.9 2.1-30.9 10.6-31.6 12.4-.2.4-.7.5-1.1.3-.4-.3-4.5 1.7-9.1 4.4-4.6 2.8-8.5 5-8.7 5-.2 0-4.5 3.1-9.6 6.9-10.3 7.7-23.8 20.5-31.4 29.7C25.8 523.3 13 547.7 7 569.3c-2.4 8.6-2.9 10.8-3.6 15.2-.3 1.6-.7 4.1-1 5.5C.8 599.1.5 604.4.6 620c0 15.8.4 21.2 1.9 29 .2 1.4.7 3.7 1 5.2.3 1.6.8 4 1.1 5.5.3 1.6.7 3.2.8 3.8.1.5.5 1.6.9 2.2.5.7.6 1.3.3 1.3-.5 0 4.1 13.8 6.8 20.5 4.8 11.6 17 32.9 23.2 40.4 13.3 16.3 20.3 23.3 32.4 32.7 7.7 5.9 20.5 14.4 21.9 14.4.5 0 1.1.3 1.3.8.3.6 5.8 3.3 20.3 9.9 1.7.7 4.1 1.5 5.2 1.7 1.2.3 3 .9 4 1.4 2.5 1.3 18.3 5.2 23.5 5.8 2.3.3 4.6.8 5 1 2.6 1.6 31.1 2.3 44.3 1.1 8.1-.7 8.9-.8 18-2.7 2.8-.6 5.9-1.2 7-1.4 1.1-.2 4.7-1.2 8-2.2 3.3-1 6.2-1.8 6.5-1.9 1.4-.2 10.6-4 11.6-4.7.6-.4 1.4-.5 1.7-.1.4.3.7.1.7-.5 0-.7.9-1.2 2-1.2s2-.5 2-1.2c0-.6.3-.9.6-.5 1.1 1 22.7-11.1 24.6-13.8.5-.6.8-.6.8 0s.3.6.8 0c.4-.6 3.4-3.1 6.8-5.6 12.1-9.1 24.6-21.4 31.9-31.4 1.7-2.2 3.3-4.2 3.6-4.5 1-.8 11.1-16.9 16.1-25.5 7.9-13.9 11.1-22.3 9.8-26-.4-1.1-.5-2.5-.3-3.1.9-2.5-17.6-17.4-21.5-17.4-.6 0-1.2-.3-1.4-.8-.3-.6-5-3.3-14.3-8.1-1.6-.9-3.1-1.9-3.3-2.4-.2-.4-.8-.7-1.4-.7-.5 0-2.3-.9-3.9-2.1-1.6-1.1-2.9-1.8-2.9-1.5 0 .3-1.6-.5-3.5-1.9-2-1.3-4.9-3-6.5-3.7-1.7-.7-3-1.7-3-2.1 0-.5-.4-.6-.9-.3s-1.4-.1-2.1-.9c-.7-.8-1.6-1.5-2.1-1.5-.4 0-3.1-1.4-5.9-3-2.8-1.7-5.3-3-5.5-3-.2 0-.6 1.5-1 3.2-1.1 5.1-5.9 21.4-7.5 25.3-7.1 17.3-16 29.3-30.1 40.5-5.4 4.4-20.6 12-26.9 13.6-13 3.3-29.4 4.5-37 2.9-1.4-.3-3.6-.7-5-1-5.3-1-6.7-1.4-11.5-3-13.8-4.7-30.1-16.1-39.5-27.8-5.3-6.5-14.8-24.4-15.2-28.7-.2-1.4-.6-2.7-.9-3-.7-.5-1.3-3.5-2.6-12-1-6.9-.4-21.6 1.1-28.9 2.9-13.5 11.6-31.5 18.5-38.2.9-.8 2.7-2.9 4.1-4.5 4.6-5.5 22.7-18.4 26.6-19 .6-.1 2.7-.9 4.5-1.7 11.5-5.2 31.5-7.6 44.4-5.3 2.2.4 5.1.9 6.5 1 1.4.2 2.5.5 2.5.6 0 .1.7.3 1.5.5 6.5 1.4 23.4 9.2 36.3 16.7 2.6 1.5 4.7 2.5 4.7 2.1 0-.3.8.1 1.8.9.9.9 5.1 3.3 9.2 5.5s9.2 5 11.3 6.1c2 1.2 5.2 3 7 4.1 1.7 1 5.6 3.2 8.5 5 2.9 1.7 5.7 3.1 6.2 3.1.6 0 1 .4 1 .9s.8 1.1 1.8 1.5c.9.3 3.1 1.4 4.7 2.3 1.7 1 5.3 3.2 8 4.7 2.8 1.6 5.8 3.6 6.8 4.4.9.8 1.7 1.2 1.7.8 0-.4.7-.1 1.5.6 2.6 2.3 4 3.3 5.5 3.6.8.2 2.2 1 3.1 1.8.8.8 1.8 1.4 2.1 1.4.3 0 5.8 3.1 12.2 7 6.4 3.8 12 7 12.5 7 .6 0 1.4.6 1.8 1.2.7 1.2 3.8 3 14.8 8.7 1.6.9 3.4 2.1 4.1 2.6 2 1.9 21.8 11.4 24.9 12.1 5.2 1 9.4.7 13.2-1.1 5.9-2.8 10.6-5 13.1-6.3 1.2-.7 3-1.6 4.1-2.1 2.6-1.3 16.5-8.9 23.6-12.8 3.3-1.9 7.2-3.9 8.8-4.4 1.5-.6 2.7-1.5 2.7-2s.4-.9.9-.9 6.5-3.2 13.4-7c6.9-3.9 13-7 13.6-7 2.6 0 .7-2-5.6-6-3.8-2.3-8.4-5.3-10.3-6.5-6.2-3.9-30.4-18.7-33.9-20.7-1.9-1.1-5-3-7-4.4-2-1.3-4.1-2.4-4.7-2.4-.7 0-1.4-.4-1.6-.8-.1-.5-6.8-4.8-14.8-9.6-8-4.9-15.7-9.7-17.2-10.7s-3-1.9-3.3-1.9c-.4 0-2.5-1.2-4.8-2.8-2.3-1.5-5.1-3.2-6.2-3.9-1.1-.7-5.1-3.1-9-5.5-3.8-2.3-7.9-4.8-9-5.4-1.1-.6-9.6-5.7-19-11.4-33.2-20.1-61.1-35.7-62.7-35.2-.5.1-.8-.3-.8-.8 0-.6-.4-1-.9-1s-4-1.4-7.8-3.2c-3.7-1.8-7-3.3-7.3-3.3-.3-.1-2.1-.8-4-1.7-2-.8-6.5-2.5-10-3.8-3.6-1.2-7.7-2.9-9.2-3.7-1.6-.7-2.8-1.1-2.8-.9 0 .3-1.9-.2-4.2-1-2.4-.9-5-1.7-5.8-1.9-.8-.1-3.3-.8-5.5-1.3-4.9-1.3-11.3-2.5-14.2-2.6-1.3-.1-2.3-.3-2.3-.6s-1-.6-2.2-.7c-5.3-.5-35.6-.9-38.8-.6zM658.4 545.5c-2.3 1.3-9.5 5.1-16 8.6-6.6 3.4-13.6 7.3-15.6 8.6-2.1 1.3-3.8 2-3.8 1.6 0-.5-.4-.3-.8.3-.4.5-2.3 1.8-4.2 2.8-6.5 3.3-11.6 6.1-14.3 7.9-1.5.9-2.7 1.4-2.7 1 0-.5-.4-.4-.8.2-.4.5-2.3 1.8-4.2 2.9-1.9 1-8.7 4.5-15 7.9-6.3 3.3-11.7 6.3-12 6.6-.3.3-3.2 1.9-6.5 3.6-3.3 1.6-6.1 3.3-6.3 3.7-.2.5-1.1.8-2 .8-.8 0-2.3.6-3.1 1.4-.9.7-6.5 3.9-12.6 7.1-14.1 7.4-14.9 7.9-15.5 8.5-.3.3-2.3 1.4-4.5 2.6-6.3 3.2-13.9 7.5-15.1 8.5-.6.5-1.4.6-1.7.2-.4-.3-.7-.1-.7.5 0 .7-.4 1.2-.9 1.2-1 0-26.1 14.2-30.3 17.1-1.4 1.1-2.9 1.9-3.2 1.9-.3 0-3.4 2-6.9 4.5-3.6 2.5-6.7 4.5-7.1 4.5-.6 0-3.6 2.3-6.1 4.7-.8.7-1.8 1.3-2.4 1.3-.6 0-1.1.4-1.1 1 0 .5-.6 1-1.4 1-.8 0-1.6.4-1.8.8-.1.5-3 2.8-6.3 5.3-3.3 2.4-6.2 4.6-6.5 4.9-.3.3-2.5 2.1-5 4-7.9 6-17.1 14.9-25.1 24-3 3.5-6 6.9-6.6 7.6-.7.7-1.3 1.5-1.3 1.9 0 .6-5.4 8.1-8 11.2-.5.7-1 1.5-1 1.9 0 .4-1.3 2.8-2.9 5.4-1.6 2.7-2.7 5.1-2.4 5.4.4.3.2.6-.4.6-1.4 0-10.8 22.4-11.8 28-.1.8-.5 2.2-.8 3-.4.8-.8 2.6-1.1 4-.2 1.4-.9 4.5-1.5 7-2.9 13-3.6 21.1-3.5 41.5.1 16.2.6 24.1 1.9 28.5.3.8.7 3.3 1.1 5.5.8 4.8 1.2 7 1.4 7 .1 0 .3 1 .6 2.3.7 3.7 6.1 19.8 7.9 23.1.8 1.7 1.3 3.1 1.1 3.1-.8 0 9 18.6 13.1 24.9 10.1 15.4 26.5 33.9 37.1 41.8 2 1.6 3.9 3.1 4.2 3.4 1 1.2 20 13.8 20 13.3 0-.3 1.2.3 2.7 1.4 3.5 2.4 13.9 7.3 21.8 10.2 3.3 1.2 6.8 2.6 7.7 3.1 1 .5 2.7.9 3.7.9 1.1 0 2.3.5 2.6 1.1.4.5 1.2.8 1.8.6.7-.2 2.3 0 3.7.6 1.4.5 3.4 1.1 4.5 1.2 1.1.2 4 .8 6.5 1.3 11.7 2.7 41.7 3.7 55 2 9.7-1.4 20.5-3.3 20.5-3.8 0-.1.7-.3 1.5-.5.8-.1 3.5-.9 6-1.6 2.5-.7 4.7-1.3 5-1.4 2.6-.6 8.8-3 9.9-3.9.8-.6 1.5-1 1.5-.9 1 2.2 37.4-18.1 41.7-23.3.6-.8 1.5-1.4 2-1.4 2.3 0 24.5-22.3 31-31 5-6.8 9.9-14 9.9-14.6 0-.3.8-1.8 1.9-3.2 3.5-5.1 9-15.9 8.4-16.6-.3-.3-.2-.6.4-.6.9 0 1.7-1.6 2.1-4.3.1-.4.8-2 1.6-3.5 1.5-2.5 5.2-12.5 6.2-16.5.2-.9.6-2.5.9-3.5 2.6-9.6 4.2-18.4 5.3-28.2 1.2-11.9.6-36.2-1.2-45-.1-.8-.6-3.1-1-5s-.8-4.6-1-6c-.1-1.4-.6-3.2-1.1-3.9-.4-.8-.8-2.1-.9-3-.2-2.1-3.5-12.7-5.1-16.6-.7-1.7-2-4.8-2.9-7-3.3-7.8-4.1-9.5-4.9-9.5-.5 0-.6-.4-.2-.9.3-.5-.1-1.5-.8-2.3-.7-.7-1.9-2.8-2.6-4.6-.7-1.7-1.7-3.2-2.2-3.2-.5 0-.9-.5-.9-1.1 0-2.2-11.4-17.8-20-27.3-6.7-7.4-7.1-7.6-9.4-6.4-6.2 3.3-19.2 11.2-19.7 12-.3.6-.8.9-1 .8-.8-.4-5.9 2.3-5.9 3.1 0 .4-1.2 1.2-2.7 1.8-1.6.6-4.1 2-5.8 3.1-1.6 1.1-4.9 3-7.2 4.2-2.4 1.2-4.3 2.6-4.3 3 0 .4-.4.8-.9.8s-5.2 2.6-10.5 5.7c-5.4 3.2-10.5 6.2-11.4 6.8-8.7 5.1-9.5 5.8-7.6 6.8 1.1.6 2.1 1.3 2.4 1.6.3.3 3.2 2.8 6.5 5.6 18.1 15 28.3 31.3 32.1 51 .9 5 1.1 24.5.3 30.5-1.2 8.4-10.5 32.2-13.3 34.2-.7.5-.7.8-.1.8.7 0 .7.3 0 .8-.6.4-2.3 2.5-3.9 4.7-11.1 15.2-31.4 27.9-49.6 31.1-13.3 2.2-30.4 2.3-39.5.1-1.1-.3-3.3-.8-5-1.2-5.2-1.1-15.7-5.7-22.7-9.9-7.7-4.6-22.8-18.8-22.8-21.6 0-.5-.4-1-1-1-.5 0-1.9-1.7-2.9-3.7-9.1-17.8-12.4-26.8-13.6-37.3-.2-1.4-.4-2.7-.5-3-.4-1.1-.1-14.8.4-19.3 2.5-21.3 14.7-42.8 31.7-56 4.8-3.8 36.2-23.3 48.7-30.3 2-1.1 14-8 26.5-15.2 12.6-7.3 23.3-13.2 23.8-13.2s.9-.4.9-.9.9-1.3 2-1.6c1.2-.4 5.8-2.9 10.4-5.6 4.6-2.7 8.9-4.9 9.5-4.9.6 0 1.1-.4 1.1-.9s.8-1.1 1.8-1.4c1.7-.6 9.3-4.8 10.2-5.7.3-.3 1.4-1 2.5-1.6 1.1-.6 6.5-3.7 12-6.9s12-7 14.4-8.4c2.5-1.4 5.2-3.2 6.1-4 1-.9 3.4-3.1 5.4-5 8.3-7.6 10.3-12.2 11-25.1.3-4.7.5-8.7.6-9 .2-.7.2-50.5 0-50.5-.8 0-.3-15.6.5-15.9.6-.3.5-.5-.2-.5-.7-.1-1-1.1-.7-2.6.5-3.1 0-3.1-5.2 0z"/></svg>